# xmcd CD database file
#
# Track frame offsets:
#	150
#	32732
#	60675
#	90575
#	112007
#	130985
#	149540
#	189157
#	229007
#	261820
#
# Disc length: 4049 seconds
#
# Revision: 0
# Processed by: cddbd v1.5.1PL2 Copyright (c) Steve Scherf et al.
# Submitted via: CDex 1.51
#
DISCID=890fcf0a
DTITLE=Grand Central - Sax Storm
DYEAR=1992
DGENRE=Jazz
TTITLE0=Akili
TTITLE1=Solar
TTITLE2=Imperfect Way
TTITLE3=You Got To My Head
TTITLE4=The Awakening
TTITLE5=We'll Be Together Again
TTITLE6=Domo Crocodile
TTITLE7=All The Things You Are
TTITLE8=Body And Soul
TTITLE9=Blues Up And Down
EXTD=YEAR: 1992
EXTT0=
EXTT1=
EXTT2=
EXTT3=
EXTT4=
EXTT5=
EXTT6=
EXTT7=
EXTT8=
EXTT9=
PLAYORDER=
